<svg width="26" height="28" viewBox="0 0 26 28" fill="none" xmlns="http://www.w3.org/2000/svg">
<g clip-path="url(#clip0_162_72)">
<path d="M3.82961 5.35881C0.986348 9.46505 -0.220494 13.2753 1.07705 18.1151C2.42498 23.1398 7.36321 26.5878 12.4513 27.3391C13.7892 27.5368 15.1598 27.5777 16.4876 27.32C19.2767 26.7778 21.7281 24.904 23.2638 22.4841C24.7994 20.0642 25.4646 17.1418 25.4394 14.2665C25.3978 9.37831 23.4868 0.43489 13.7615 0.505049C10.7293 0.52801 6.26092 1.63143 3.82961 5.35881Z" fill="#F5BFBB"/>
<path d="M3.3261 4.97605C2.37121 6.35755 1.51962 7.82069 0.909896 9.39354C0.350566 10.8376 0.0381482 12.3581 0.00161541 13.9093C-0.0361771 15.5306 0.227111 17.1991 0.748648 18.7324C1.22861 20.1445 1.99958 21.4418 2.94943 22.5797C4.86929 24.8784 7.5576 26.5086 10.3958 27.3505C12.0373 27.8378 13.7694 28.0776 15.4789 27.9807C17.1128 27.8876 18.7001 27.3761 20.0959 26.515C21.4149 25.7012 22.5701 24.5939 23.4645 23.3208C24.4509 21.9151 25.1362 20.2912 25.5368 18.6189C26.0974 16.2794 26.1175 13.8149 25.7497 11.4422C25.4448 9.47391 24.8641 7.54133 23.8991 5.79883C22.8359 3.88029 21.2574 2.26279 19.3111 1.2678C17.0435 0.108257 14.4043 -0.186412 11.9025 0.112084C9.26078 0.424613 6.64428 1.45022 4.69545 3.32284C4.17895 3.82033 3.7204 4.37523 3.3261 4.97605C3.16611 5.22097 3.38657 5.54243 3.58561 5.68657C3.76071 5.81158 4.16635 5.99655 4.33138 5.74525C5.11494 4.54999 6.08117 3.62771 7.26786 2.8853C7.82719 2.5345 8.41927 2.236 9.02899 1.98598C9.1726 1.9273 9.31621 1.87245 9.46108 1.81887C9.59084 1.7704 9.38046 1.84694 9.51021 1.80101C9.54927 1.78698 9.58832 1.77295 9.62863 1.76019C9.70674 1.73341 9.7861 1.70662 9.86546 1.6811C10.164 1.58543 10.4651 1.49997 10.77 1.4247C11.3495 1.28183 11.9365 1.17468 12.5286 1.10452C12.8045 1.07136 13.0816 1.04712 13.3588 1.02926C13.4167 1.02543 13.4747 1.02288 13.5326 1.02033C13.389 1.02798 13.6094 1.01778 13.6447 1.0165C13.7921 1.01268 13.9382 1.01013 14.0856 1.01013C14.7558 1.0114 15.426 1.05605 16.0886 1.153C16.2373 1.17468 16.3847 1.20019 16.5321 1.22698C16.5598 1.23208 16.6341 1.24867 16.5107 1.22316C16.5497 1.23081 16.5888 1.23846 16.6278 1.24739C16.7122 1.26525 16.7954 1.28311 16.8798 1.30224C17.1607 1.3673 17.4391 1.44256 17.715 1.52931C17.8447 1.57013 17.9745 1.6135 18.103 1.66069C18.1723 1.68493 18.2416 1.71172 18.3096 1.73723C18.3436 1.74999 18.3776 1.76402 18.4116 1.77678C18.5351 1.82398 18.2806 1.72193 18.4015 1.77295C18.6522 1.87883 18.9004 1.99108 19.1423 2.11609C19.3778 2.23728 19.6059 2.36994 19.8314 2.50899C19.9422 2.57787 19.6953 2.41969 19.8036 2.49113C19.8314 2.51026 19.8603 2.52812 19.888 2.54726C19.9347 2.57787 19.9813 2.60976 20.0279 2.64165C20.1375 2.71819 20.2471 2.796 20.3542 2.87637C20.5557 3.02817 20.7522 3.1889 20.9412 3.35728C20.9651 3.37896 20.9903 3.40065 21.0143 3.42234C20.8568 3.28329 20.9513 3.36493 20.9853 3.39682C21.0256 3.43382 21.0646 3.47081 21.1037 3.50908C21.1969 3.59965 21.2889 3.69022 21.3783 3.78461C21.5497 3.9632 21.7134 4.14689 21.8722 4.33696C21.9477 4.42753 22.0208 4.51937 22.0926 4.61122C22.1682 4.70689 22.0019 4.49003 22.075 4.58826C22.0913 4.60994 22.1065 4.63035 22.1228 4.65204C22.1644 4.70689 22.2047 4.76302 22.245 4.81915C22.5285 5.21459 22.7855 5.62917 23.0185 6.0565C23.074 6.15855 23.1281 6.2606 23.181 6.36393C23.2012 6.4022 23.2931 6.56038 23.2024 6.40475C23.239 6.46726 23.2667 6.53742 23.2982 6.60375C23.4015 6.82188 23.4972 7.04129 23.5892 7.26452C23.7706 7.70461 23.9293 8.15491 24.0704 8.61031C24.1384 8.82972 24.2014 9.0504 24.2594 9.27236C24.2884 9.37951 24.3148 9.48794 24.3413 9.59637C24.3539 9.64994 24.369 9.70352 24.3803 9.75837C24.3463 9.60019 24.3891 9.79664 24.398 9.83746C24.8074 11.6718 24.9812 13.6235 24.8389 15.4821C24.5907 18.726 23.4053 21.9164 21.0584 24.201C20.5469 24.6998 19.9661 25.1565 19.3388 25.5519C19.0226 25.7509 18.6963 25.9333 18.3612 26.0966C18.0526 26.2471 17.6621 26.4104 17.3937 26.5022C15.7258 27.0763 13.9949 27.098 12.2653 26.8416C12.1003 26.8173 11.9352 26.7893 11.7702 26.7599C11.7513 26.7561 11.6014 26.728 11.7299 26.7523C11.6921 26.7446 11.6556 26.737 11.6178 26.7306C11.5208 26.7114 11.4238 26.6898 11.3268 26.6681C10.9829 26.5915 10.6427 26.5022 10.3051 26.4027C9.96624 26.302 9.63241 26.191 9.3011 26.0673C9.22929 26.0405 9.15748 26.0137 9.08568 25.9856C9.04285 25.969 9.00002 25.9512 8.95718 25.9346C8.81105 25.8772 9.0756 25.9843 8.93073 25.9244C8.76066 25.853 8.5906 25.7802 8.42305 25.7037C8.10181 25.557 7.78562 25.4001 7.47446 25.2317C7.32581 25.1514 7.17968 25.0684 7.03355 24.983C6.96804 24.9447 6.90127 24.9052 6.83576 24.8656C6.79671 24.8414 6.75766 24.8171 6.71861 24.7929C6.68711 24.7738 6.50445 24.6717 6.66696 24.761C6.37092 24.599 6.08999 24.3758 5.81915 24.1742C5.54452 23.9701 5.27745 23.7545 5.0192 23.53C4.95118 23.4714 4.87811 23.414 4.81512 23.3489C4.9474 23.4841 4.75717 23.294 4.72316 23.2622C4.59719 23.1422 4.47247 23.0211 4.35028 22.8961C4.1084 22.6486 3.87535 22.3909 3.65363 22.123C3.59568 22.0541 3.539 21.984 3.48357 21.9125C3.45585 21.8768 3.42562 21.8424 3.40042 21.8054C3.4105 21.8207 3.47979 21.9113 3.41428 21.822C3.30594 21.6778 3.20012 21.5324 3.09808 21.3832C2.90282 21.0987 2.7189 20.8053 2.55009 20.5043C2.46947 20.3601 2.39262 20.2134 2.31704 20.0667C2.24775 19.9315 2.36617 20.1713 2.30066 20.0335C2.28176 19.9927 2.26161 19.9519 2.24271 19.9111C2.20492 19.8294 2.16713 19.7465 2.13059 19.6636C1.99076 19.3447 1.86605 19.0181 1.75897 18.6865C1.70732 18.527 1.65819 18.365 1.6141 18.203C1.56371 18.0168 1.49946 17.7655 1.47048 17.6328C1.38104 17.231 1.3042 16.8253 1.24625 16.4171C1.02957 14.8928 1.06988 13.4475 1.39868 11.9588C1.72747 10.4753 2.30822 9.09887 3.04013 7.79518C3.4357 7.08976 3.87157 6.40985 4.33012 5.74525C4.49641 5.50543 4.26587 5.17632 4.07061 5.03473C3.89173 4.90461 3.49742 4.7273 3.3261 4.97605Z" fill="#1E2125"/>
<path d="M7.72285 10.2994C6.83725 11.8786 6.79568 13.8801 7.59436 15.504C7.63719 15.5907 7.77198 15.6545 7.85009 15.6889C7.9937 15.7527 8.16377 15.7999 8.31872 15.8178C8.39808 15.8267 8.90324 15.8688 8.80372 15.666C8.02016 14.0714 8.0844 12.1274 8.95237 10.5788C9.05063 10.4053 7.90426 9.97669 7.72285 10.2994Z" fill="#1E2125"/>
<path d="M15.1443 10.1921C14.5661 12.1196 14.5233 14.1887 15.0209 16.1404C15.0335 16.1889 15.1783 16.2118 15.201 16.2169C15.3446 16.2488 15.4971 16.2654 15.6432 16.2756C15.6885 16.2782 16.2945 16.2973 16.2781 16.2322C15.7805 14.2818 15.8233 12.2127 16.4016 10.284C16.4255 10.2062 15.8309 10.1526 15.7792 10.1501C15.6306 10.1398 15.4819 10.1322 15.3333 10.1437C15.2917 10.1462 15.1594 10.1424 15.1443 10.1921Z" fill="#1E2125"/>
<path d="M7.65601 20.4139C8.72302 21.7801 10.304 22.6348 11.9933 22.9001C13.5844 23.1501 15.3254 22.9817 16.6947 22.0646C17.3863 21.6015 17.9545 20.9522 18.2707 20.1715C18.4017 19.8488 17.3523 19.2072 17.2818 19.3819C16.143 22.196 12.3876 22.6871 9.90214 21.7061C9.81144 21.6704 9.72326 21.6321 9.63508 21.5926C9.4902 21.5288 9.71948 21.6372 9.57965 21.5658C9.53682 21.5441 9.49398 21.5224 9.45115 21.4995C9.36675 21.4548 9.28235 21.4076 9.1992 21.3579C9.30754 21.4229 9.21306 21.3655 9.18661 21.3477C9.13999 21.3171 9.09338 21.2852 9.04677 21.2545C8.94851 21.1895 9.04929 21.2596 9.06567 21.2699C9.01276 21.2341 8.96363 21.192 8.9145 21.1525C8.89434 21.1359 8.85907 21.1129 8.84017 21.0913C8.95229 21.2239 8.8175 21.0696 8.78852 21.0428C8.76459 21.0211 8.74191 20.9981 8.71924 20.9765C8.67263 20.9293 8.67389 20.9318 8.72428 20.9828C8.7016 20.9599 8.68019 20.9356 8.65877 20.9127C8.63735 20.8884 8.61594 20.8642 8.59452 20.84C8.58318 20.8272 8.46351 20.6805 8.52272 20.7558C8.34131 20.5236 8.10196 20.3029 7.82355 20.1971C7.76561 20.1754 7.64467 20.1256 7.59554 20.1881C7.54767 20.2519 7.62325 20.3718 7.65601 20.4139Z" fill="#1E2125"/>
<path d="M17.6567 17.3255C17.2044 18.0972 16.9789 19.0948 17.4702 19.9035C17.9754 20.7352 19.1709 21.1689 20.0792 20.8551C20.3488 20.762 20.0918 20.5005 19.9557 20.4265C19.7063 20.2913 19.3737 20.2084 19.0966 20.3041C18.9819 20.3436 19.1646 20.3015 19.0462 20.3194C19.0311 20.3219 18.9177 20.3347 18.992 20.3296C19.0676 20.3245 18.9416 20.3309 18.9379 20.327C18.9618 20.3283 18.9857 20.3309 19.0097 20.3321C18.9555 20.3245 18.9567 20.3257 19.0122 20.336C19.1029 20.4061 18.9996 20.299 18.9756 20.3245C19.0638 20.3551 19.084 20.3615 19.0374 20.3449C19.0185 20.3372 18.9983 20.3296 18.9794 20.3219C19.0109 20.3117 19.0878 20.3781 18.987 20.3232C18.9404 20.2977 18.9152 20.2798 18.9744 20.3206C18.9164 20.2811 18.861 20.2352 18.8081 20.1893C18.7161 20.1089 18.8459 20.2441 18.769 20.1484C18.7464 20.1204 18.7224 20.0949 18.701 20.0655C18.6103 19.9494 18.5587 19.8589 18.5095 19.7186C18.2626 19.0221 18.5184 18.2541 18.8749 17.6457C18.9202 17.5691 18.7854 17.4403 18.7451 17.4071C18.6343 17.3153 18.4717 17.2477 18.3344 17.2145C18.1266 17.1635 17.7877 17.1022 17.6567 17.3255Z" fill="#1E2125"/>
</g>
<defs>
<clipPath id="clip0_162_72">
<rect width="26" height="28" fill="white"/>
</clipPath>
</defs>
</svg>
