<svg width="28" height="28" viewBox="0 0 28 28" fill="none" xmlns="http://www.w3.org/2000/svg">
<g clip-path="url(#clip0_162_235)">
<path d="M27.8355 16.3496C27.8092 15.9202 27.4966 15.5763 27.2081 15.2814C26.0633 14.1109 24.4247 13.5064 22.8131 13.3172C21.7572 13.1932 20.6991 13.243 19.6503 13.3817C20.201 13.175 20.7431 12.9439 21.2775 12.6945C22.1075 12.3064 22.9218 11.8826 23.7234 11.4406C24.441 11.0449 25.1708 10.591 25.6569 9.9206C26.0818 9.335 26.2694 8.57778 26.0768 7.8738C25.9844 7.53757 25.7905 7.22796 25.5176 7.00521C25.1857 6.73482 24.7644 6.59402 24.3409 6.54429C23.4803 6.44342 22.5779 6.63675 21.7799 6.94707C20.935 7.27559 20.1633 7.75472 19.4612 8.32001C18.7336 8.90561 18.0813 9.57317 17.4545 10.2617C17.4354 10.2828 17.4162 10.3038 17.3977 10.3248C17.7196 9.76159 17.9882 9.16689 18.1971 8.54976C18.4714 7.74001 18.6462 6.89943 18.7322 6.05045C18.8224 5.16014 18.8388 4.23691 18.7144 3.3487C18.5901 2.46049 18.2397 1.56458 17.4602 1.04272C16.7262 0.550984 15.7527 0.54468 14.9952 0.985982C14.1972 1.4511 13.7481 2.27346 13.5413 3.14136C13.4284 3.61628 13.3786 4.10312 13.3481 4.58925C13.3182 5.05857 13.3005 5.52929 13.2912 6.00002C13.2791 6.59683 13.2806 7.19644 13.2997 7.79535C13.2152 7.49204 13.1235 7.19083 13.0212 6.89313C12.7156 6.00422 12.3213 5.14263 11.8111 4.34899C11.293 3.54273 10.6514 2.77781 9.89318 2.1796C9.13143 1.57929 8.04495 1.09386 7.07784 1.49943C6.33954 1.80694 5.92384 2.57257 5.76254 3.31088C5.56855 4.19908 5.73411 5.12582 6.0489 5.9685C6.40065 6.91134 6.96059 7.76733 7.60012 8.54416C8.25954 9.34411 9.00779 10.0775 9.78162 10.7696C10.0779 11.0344 10.3821 11.29 10.6926 11.5366C9.77025 10.9881 8.82943 10.4705 7.85735 10.0103C6.96698 9.58858 6.05246 9.21662 5.11946 8.8965C4.25822 8.6016 3.36359 8.3046 2.43983 8.32491C2.02556 8.33402 1.60915 8.40547 1.23823 8.596C0.867299 8.78653 0.561747 9.09614 0.387653 9.4716C0.016726 10.2715 0.193662 11.2151 0.672598 11.931C1.20838 12.7316 2.04332 13.2892 2.89887 13.7144C3.77787 14.1515 4.73005 14.4331 5.6993 14.5949C7.63991 14.9185 9.62387 14.7791 11.5709 14.5767C10.0232 14.9949 8.47059 15.4488 7.06718 16.2291C5.76893 16.9513 4.59504 17.9761 3.90933 19.2979C3.73594 19.6314 3.59027 19.9844 3.50003 20.3493C3.40125 20.7493 3.39273 21.171 3.60519 21.5381C3.94841 22.1307 4.70021 22.268 5.33547 22.2098C5.69858 22.1769 6.05601 22.0788 6.40136 21.9661C6.78223 21.8414 7.15174 21.6859 7.50845 21.5044C8.21762 21.1437 8.87491 20.6842 9.47323 20.1651C10.0779 19.6405 10.6194 19.0542 11.1197 18.4342C10.8447 19.0521 10.6066 19.6846 10.402 20.3227C10.1405 21.1409 9.93156 21.9815 9.81715 22.8326C9.70772 23.6437 9.67148 24.4836 9.76883 25.2975C9.84699 25.9546 10.0566 26.6383 10.559 27.1041C10.7807 27.3093 11.0578 27.4515 11.3613 27.49C11.6959 27.5321 12.0342 27.4319 12.3284 27.2799C12.7334 27.0705 13.1093 26.7721 13.395 26.4204C13.6849 26.0625 13.8966 25.6471 14.0764 25.2268C14.4417 24.375 14.6292 23.4616 14.7117 22.5433C14.8332 21.1948 14.75 19.8429 14.7223 18.491C14.9895 19.4625 15.391 20.4026 15.8458 21.3083C16.238 22.0893 16.648 22.869 17.1206 23.6059C17.5604 24.2917 18.0763 24.948 18.7251 25.4551C19.3341 25.9315 20.2628 26.4891 21.0125 25.9805C21.6122 25.5735 21.7884 24.7841 21.7984 24.1102C21.8247 22.3527 21.0302 20.6814 19.9501 19.3203C19.4016 18.629 18.7919 17.9915 18.1495 17.387C18.6043 17.5923 19.0747 17.7653 19.5522 17.9096C20.3907 18.1632 21.2555 18.3313 22.1252 18.4384C23.0803 18.5561 24.0509 18.5974 25.0053 18.451C25.875 18.3173 26.8073 18.0378 27.4127 17.3709C27.6671 17.0921 27.859 16.7328 27.8355 16.3496ZM15.8969 15.4383C15.8984 15.4404 15.8998 15.4432 15.9026 15.4488C15.9005 15.446 15.8984 15.4418 15.8969 15.4383ZM12.2395 14.5158C12.2367 14.5122 12.2331 14.5094 12.2296 14.5059C12.2324 14.5059 12.236 14.5052 12.2388 14.5052C12.2388 14.5087 12.2395 14.5122 12.2395 14.5158Z" fill="#F5BFBB"/>
<path d="M14.6018 15.9482C14.5763 15.9461 14.5514 15.9468 14.535 15.9504C14.5343 15.9504 14.5343 15.9504 14.5336 15.9511C14.5244 15.9511 14.5166 15.9532 14.5095 15.9567C14.4981 15.9602 14.4874 15.9637 14.4768 15.9686C14.2792 15.9917 14.0767 15.9777 13.8813 15.9335C13.2247 15.7843 12.6669 15.2667 12.5866 14.5921C12.5013 13.8755 12.9462 13.0931 13.6461 12.8759C13.9907 12.7506 14.3588 12.7029 14.7191 12.7856C15.0516 12.8619 15.3529 13.0623 15.5498 13.3383C15.9512 13.9021 15.9427 14.6741 15.5732 15.2534C15.3998 15.5245 15.1533 15.7542 14.8562 15.874C14.7738 15.9062 14.6885 15.9307 14.6018 15.9482Z" fill="#1E2125"/>
<path d="M13.4566 12.471C12.7077 12.7028 12.223 13.4699 12.2103 14.2243C12.1946 15.1209 12.81 16.0091 13.6549 16.3341C14.0272 16.4777 14.4266 16.5198 14.8181 16.4329C15.1969 16.3488 15.5188 16.1317 15.7632 15.8382C16.0169 15.5349 16.1661 15.1643 16.2173 14.7763C16.277 14.3168 16.1654 13.8593 15.9529 13.451C15.7106 12.9844 15.3262 12.5922 14.8188 12.4177C14.3775 12.2657 13.8887 12.3141 13.4566 12.471C13.414 12.4864 13.4254 12.5775 13.4296 12.6034C13.4417 12.6825 13.4794 12.7694 13.5192 12.8373C13.5618 12.9109 13.6847 13.1259 13.8013 13.0839C14.1537 12.9557 14.5325 12.9074 14.9027 12.9872C15.0668 13.023 15.2182 13.0825 15.361 13.1708C15.3809 13.1827 15.4001 13.196 15.4193 13.2086C15.4804 13.2492 15.4015 13.1939 15.4356 13.2205C15.4697 13.2464 15.5024 13.2737 15.5344 13.3025C15.5522 13.3186 15.5692 13.3347 15.5856 13.3515C15.5777 13.3438 15.5479 13.3102 15.5827 13.3501C15.5983 13.3683 15.614 13.3865 15.6303 13.404C15.6531 13.432 15.6509 13.4285 15.6232 13.3942C15.6332 13.4075 15.6431 13.4201 15.6523 13.4334C15.6616 13.4468 15.6708 13.4608 15.6808 13.4741C15.7305 13.5441 15.6424 13.4033 15.6843 13.4797C15.6964 13.5021 15.7092 13.5245 15.722 13.5469C15.7632 13.6219 15.6992 13.4944 15.7206 13.5455C15.7284 13.5637 15.7369 13.5812 15.7447 13.5995C15.7476 13.6065 15.7504 13.6135 15.7532 13.6205C15.7668 13.6541 15.7646 13.6492 15.7476 13.6058C15.7703 13.6345 15.7781 13.701 15.7881 13.7368C15.7689 13.6695 15.7895 13.7431 15.7916 13.7543C15.7966 13.7767 15.8009 13.7991 15.8044 13.8215C15.8108 13.8593 15.8151 13.8965 15.82 13.9343C15.8286 14.0071 15.82 13.8923 15.8222 13.9651C15.8229 13.984 15.8236 14.0029 15.8243 14.0218C15.825 14.0716 15.8243 14.1206 15.8215 14.1703C15.8023 14.5059 15.6843 14.8337 15.4967 15.1139C15.1031 15.6995 14.4017 15.9608 13.711 15.8116C13.544 15.7759 13.387 15.7191 13.2363 15.6393C13.1617 15.6 13.09 15.5559 13.0217 15.5076C13.0303 15.5139 13.0523 15.5314 13.0161 15.5027C12.9983 15.4887 12.9798 15.4746 12.9628 15.4599C12.9279 15.4312 12.8945 15.3997 12.8612 15.3696C12.805 15.3184 12.8995 15.4144 12.8498 15.3577C12.8349 15.3409 12.8192 15.324 12.8043 15.3072C12.7944 15.296 12.7851 15.2841 12.7752 15.2729C12.724 15.2134 12.8164 15.3331 12.7723 15.2687C12.7595 15.2498 12.7467 15.2316 12.7332 15.2134C12.6885 15.1503 12.7631 15.2708 12.7404 15.226C12.7318 15.2092 12.7212 15.1931 12.7119 15.1769C12.7048 15.1636 12.6977 15.1503 12.6906 15.137C12.7155 15.1867 12.719 15.1938 12.7027 15.1587C12.6963 15.1426 12.6757 15.1132 12.6757 15.0957C12.6757 15.1006 12.7006 15.1692 12.6821 15.1111C12.675 15.0894 12.6679 15.0684 12.6615 15.0467C12.6579 15.0354 12.6402 14.9626 12.6558 15.0312C12.6473 14.9948 12.6402 14.9584 12.6338 14.9213C12.6302 14.8989 12.6274 14.8771 12.6245 14.8547C12.6238 14.847 12.6188 14.7861 12.621 14.826C12.5734 14.0737 13.0601 13.3116 13.8013 13.0825C13.9391 13.0412 13.6542 12.41 13.4566 12.471Z" fill="#1E2125"/>
<path d="M14.2422 15.9554C14.2401 17.7934 14.8817 19.5299 15.6989 21.1571C16.0911 21.9382 16.5012 22.7178 16.9737 23.4547C17.4157 24.1433 17.9323 24.7968 18.581 25.3082C18.9797 25.622 19.4238 25.8875 19.8949 26.0822C20.3021 26.2503 20.7569 26.3631 21.1619 26.134C21.4525 25.9701 21.643 25.6745 21.7623 25.374C21.8952 25.0413 21.9443 24.6889 21.9514 24.3331C21.9833 22.5812 21.1875 20.9105 20.1109 19.5551C19.0671 18.2403 17.8079 17.1189 16.5118 16.0527C16.3349 15.907 16.1572 15.7613 15.9796 15.6163C15.8559 15.5155 15.7025 15.4398 15.5511 15.3894C15.5113 15.3761 15.4275 15.3354 15.3877 15.3529C15.355 15.3677 15.3734 15.3908 15.399 15.4111C16.0407 15.9364 16.6852 16.459 17.3013 17.0131C17.8953 17.5475 18.4581 18.1156 18.9882 18.7124C20.1124 19.9796 21.0432 21.4905 21.2635 23.1885C21.3566 23.9065 21.3658 24.7149 20.9814 25.3586C20.8251 25.6199 20.5934 25.8496 20.2857 25.9211C20.106 25.9624 19.9098 25.9449 19.7592 25.8868C19.826 25.9127 19.6874 25.8538 19.7741 25.8931C19.7492 25.8819 19.7251 25.8699 19.7009 25.8587C19.6434 25.8321 19.777 25.8994 19.6967 25.8566C19.6725 25.844 19.6476 25.8307 19.6235 25.8181C19.6071 25.8097 19.5915 25.8006 19.5752 25.7915C19.6427 25.8286 19.5631 25.7838 19.5538 25.7789C19.5069 25.7509 19.46 25.7221 19.4139 25.6927C19.4501 25.7165 19.4117 25.6913 19.406 25.6871C19.3833 25.6717 19.3606 25.6563 19.3385 25.6409C19.3009 25.615 19.2639 25.5883 19.2277 25.5617C19.1531 25.5071 19.0884 25.4553 19.0159 25.3943C18.8624 25.2654 18.7175 25.1274 18.5789 24.9824C18.3068 24.6987 18.0644 24.3877 17.8406 24.0662C17.3674 23.386 16.9744 22.6533 16.5907 21.922C15.7685 20.3544 15.0452 18.6949 14.9094 16.915C14.8931 16.6972 14.8853 16.4786 14.8853 16.2594C14.8853 16.2243 14.8327 16.1914 14.8107 16.1753C14.7446 16.127 14.6664 16.0863 14.5918 16.052C14.5676 16.0408 14.2422 15.9119 14.2422 15.9554Z" fill="#1E2125"/>
<path d="M11.9149 14.5032C10.2038 14.962 8.46497 15.4278 6.90807 16.2866C5.60486 17.006 4.41675 18.0273 3.72819 19.3526C3.55339 19.6888 3.40132 20.0419 3.30824 20.4096C3.21302 20.7858 3.19383 21.2159 3.40985 21.557C3.8156 22.1979 4.74505 22.3065 5.44 22.2435C5.81803 22.2092 6.18754 22.1139 6.54639 21.9962C6.93792 21.868 7.31879 21.7132 7.68617 21.5283C8.40102 21.1682 9.064 20.7066 9.66729 20.1862C10.9733 19.0584 11.9866 17.6483 12.9147 16.213C13.0298 16.0351 13.1442 15.8558 13.2572 15.6765C13.3289 15.5623 13.1143 15.4936 13.0355 15.4754C12.9474 15.4551 12.8529 15.4411 12.7626 15.4516C12.7122 15.4572 12.6191 15.4635 12.5892 15.5105C11.6967 16.9205 10.7573 18.3222 9.55999 19.5025C8.48061 20.5665 7.15962 21.4624 5.68231 21.8519C5.59562 21.875 5.50822 21.8967 5.42081 21.9149C5.38244 21.9227 5.34407 21.9304 5.30499 21.9367C5.28936 21.9395 5.27372 21.9416 5.25809 21.9444C5.32631 21.9332 5.24601 21.9458 5.23748 21.9465C5.1579 21.957 5.0776 21.964 4.99801 21.9682C4.98807 21.9689 4.95609 21.9668 4.94969 21.9703C4.97243 21.9563 5.00583 21.9703 4.9632 21.9696C4.91559 21.9696 4.86727 21.9696 4.81966 21.9668C4.80402 21.9661 4.78768 21.9647 4.77205 21.964C4.6882 21.9605 4.85519 21.9745 4.77205 21.964C4.74078 21.9598 4.71023 21.957 4.67896 21.9521C4.66262 21.9493 4.62638 21.9367 4.61003 21.9409C4.61714 21.9395 4.69601 21.9605 4.63561 21.9451C4.61714 21.9402 4.59866 21.9367 4.58019 21.9318C4.56953 21.929 4.55816 21.9262 4.5475 21.9227C4.51268 21.9128 4.51837 21.9142 4.56527 21.9283C4.54182 21.9325 4.4935 21.9023 4.47147 21.8939C4.45513 21.8883 4.40894 21.8652 4.46934 21.8946C4.45655 21.8883 4.44305 21.882 4.43025 21.8757C4.39828 21.8589 4.36772 21.8407 4.33646 21.8225C4.29666 21.7994 4.3258 21.8155 4.33433 21.8218C4.31372 21.8071 4.29453 21.7917 4.27535 21.7763C3.69266 21.2936 3.99964 20.4005 4.25758 19.8121C4.82818 18.5099 5.91538 17.462 7.1248 16.723C8.55095 15.8516 10.1711 15.3634 11.7763 14.927C11.9795 14.8716 12.1828 14.817 12.386 14.763C12.4237 14.7525 12.4954 14.7308 12.5025 14.6818C12.5096 14.6335 12.4471 14.59 12.413 14.5718C12.2744 14.4983 12.0691 14.4618 11.9149 14.5032Z" fill="#1E2125"/>
<path d="M12.5878 15.6855C11.5169 17.1285 10.7317 18.788 10.191 20.4901C9.93231 21.3034 9.72624 22.1384 9.61325 22.9831C9.50453 23.7985 9.46687 24.644 9.57204 25.4614C9.6502 26.0701 9.84491 26.7426 10.3395 27.1545C10.5818 27.3562 10.8802 27.4396 11.1929 27.4592C11.659 27.4879 12.1202 27.4284 12.5387 27.2182C12.9488 27.0116 13.3232 26.7097 13.6124 26.3566C13.9088 25.9945 14.1248 25.5721 14.306 25.1441C14.6627 24.3 14.8474 23.3971 14.9292 22.4893C15.0997 20.6029 14.8681 18.7095 14.9505 16.821C14.9604 16.5871 14.9761 16.3524 14.9967 16.1191C15.0016 16.0638 14.6748 16.0694 14.6407 16.0701C14.5568 16.0715 14.4723 16.075 14.3898 16.089C14.3685 16.0925 14.2889 16.0995 14.2861 16.1282C14.1226 17.9782 14.3337 19.8317 14.269 21.683C14.2378 22.5741 14.1383 23.4672 13.8889 24.326C13.7617 24.7652 13.5947 25.1938 13.3872 25.6022C13.1832 26.0029 12.9345 26.3868 12.5928 26.688C12.2872 26.957 11.9269 27.2147 11.529 27.3296C11.5077 27.3359 11.4864 27.3415 11.465 27.3471C11.47 27.3457 11.4011 27.3611 11.4295 27.3555C11.4579 27.3499 11.3911 27.3618 11.3954 27.3611C11.3265 27.3744 11.4551 27.3555 11.3862 27.3625C11.3172 27.3695 11.448 27.3583 11.4018 27.3611C11.345 27.3646 11.5247 27.3611 11.5041 27.3604C11.4345 27.3583 11.583 27.3653 11.5141 27.3611C11.5901 27.366 11.5311 27.3625 11.5127 27.3604C11.4537 27.3541 11.5546 27.3716 11.497 27.3576C11.4793 27.3534 11.4622 27.3499 11.4451 27.345C11.4253 27.3401 11.3911 27.3296 11.3798 27.3254C11.3137 27.3023 11.2504 27.2708 11.19 27.235C10.6763 26.931 10.4375 26.3013 10.3302 25.7493C10.1789 24.9648 10.2045 24.1382 10.2812 23.3474C10.3601 22.5348 10.5356 21.7314 10.7609 20.9468C11.2426 19.2678 11.9681 17.6322 12.9466 16.1759C13.0603 16.0071 13.1776 15.841 13.2991 15.6778C13.3126 15.6596 13.1776 15.6386 13.1946 15.6414C13.1129 15.6295 13.0255 15.6274 12.9431 15.6288C12.8592 15.6302 12.7747 15.6337 12.6922 15.6477C12.6567 15.6519 12.6098 15.6554 12.5878 15.6855Z" fill="#1E2125"/>
<path d="M12.2826 14.1817C11.7894 14.237 11.2963 14.2903 10.8031 14.3372C10.553 14.361 10.3029 14.3827 10.052 14.4016C9.93976 14.41 9.82748 14.4185 9.7145 14.4262C9.68394 14.4283 9.65339 14.4304 9.62283 14.4325C9.61075 14.4332 9.50843 14.4395 9.59512 14.4346C9.52335 14.4388 9.45229 14.443 9.38052 14.4465C8.4127 14.4976 7.43991 14.5004 6.47493 14.4023C6.44508 14.3995 6.41524 14.396 6.38611 14.3932C6.3989 14.3946 6.46001 14.4016 6.39108 14.3939C6.3321 14.3869 6.27241 14.3799 6.21343 14.3722C6.08553 14.3561 5.95833 14.3372 5.83114 14.3169C5.59735 14.2798 5.36428 14.2349 5.13334 14.1831C5.02746 14.1593 4.92229 14.1341 4.81784 14.1067C4.76099 14.092 4.70343 14.0766 4.64659 14.0612C4.61816 14.0535 4.58974 14.0451 4.56132 14.0374C4.54213 14.0318 4.52365 14.0262 4.50447 14.0213C4.54142 14.0325 4.54142 14.0325 4.50376 14.0213C4.27779 13.9519 4.05325 13.8763 3.83296 13.7908C3.61055 13.7047 3.3924 13.6101 3.1778 13.5064C3.1238 13.4805 3.06979 13.4539 3.0165 13.4266C2.99873 13.4175 2.98097 13.4084 2.9632 13.3993C3.01792 13.4273 2.92981 13.3817 2.92767 13.3803C2.81327 13.3187 2.70029 13.255 2.58872 13.1884C2.39473 13.0721 2.20643 12.9467 2.02665 12.8095C1.94422 12.7471 1.86321 12.682 1.78505 12.6147C1.82413 12.6483 1.7552 12.5874 1.7552 12.5874C1.7346 12.5685 1.71399 12.5496 1.69338 12.5307C1.64577 12.4858 1.59888 12.4403 1.5534 12.3934C0.959347 11.7839 0.6005 11.0036 0.741196 10.1469C0.74546 10.1217 0.749723 10.0965 0.754697 10.072C0.753987 10.0748 0.772462 9.99352 0.762514 10.0327C0.773172 9.98791 0.786674 9.94308 0.800885 9.89895C0.832862 9.79878 0.873365 9.70142 0.920975 9.60755C0.943714 9.56272 0.968584 9.51859 0.995587 9.47586C1.00909 9.45415 1.02259 9.43313 1.0368 9.41212C1.01406 9.44434 1.04604 9.40091 1.05172 9.39391C1.11568 9.30985 1.18745 9.2321 1.26561 9.16065C1.28409 9.14384 1.30256 9.12772 1.32104 9.11161C1.32672 9.10671 1.39138 9.05698 1.34093 9.0948C1.38001 9.06608 1.4191 9.03736 1.4596 9.01144C1.493 8.98973 1.52782 8.96871 1.56264 8.9498C1.58324 8.93789 1.60456 8.92669 1.62588 8.91548C1.64009 8.90847 1.6543 8.90077 1.66851 8.89376C1.63156 8.91058 1.62943 8.91198 1.66141 8.89727C1.75023 8.86014 1.84048 8.82582 1.93356 8.7985C1.9492 8.7943 1.96483 8.78939 1.98046 8.78519C2.00178 8.77958 2.06715 8.74876 1.9897 8.78239C2.03873 8.76137 2.10624 8.75787 2.15882 8.74946C2.20785 8.74176 2.25759 8.73475 2.30662 8.72915C2.33149 8.72635 2.35636 8.72355 2.38123 8.72145C2.40184 8.71934 2.4864 8.72004 2.38763 8.72004C2.48995 8.72004 2.59157 8.71304 2.6946 8.71514C2.79835 8.71794 2.9028 8.72425 3.00584 8.73405C3.01081 8.73475 3.0975 8.74316 3.03711 8.73686C2.97671 8.73055 3.0634 8.74036 3.06837 8.74106C3.12948 8.74876 3.19059 8.75717 3.25099 8.76698C3.45919 8.7999 3.66526 8.84403 3.86991 8.89657C3.92037 8.90987 3.97082 8.92318 4.02056 8.93719C4.04543 8.9442 4.0703 8.9512 4.09517 8.95821C4.17973 8.98202 4.02553 8.93649 4.10938 8.96241C4.22592 8.99813 4.34174 9.03456 4.45757 9.07169C5.38133 9.36939 6.28804 9.71613 7.17273 10.1126C7.59553 10.3024 8.01335 10.5035 8.42549 10.7136C8.47665 10.7395 8.52782 10.7661 8.57898 10.7928C8.60456 10.8061 8.63014 10.8194 8.65572 10.8327C8.65999 10.8348 8.74455 10.8789 8.68699 10.8488C8.78931 10.9027 8.89093 10.9567 8.99254 11.0113C9.19648 11.1213 9.399 11.2334 9.6008 11.3475C10.4365 11.8204 11.2536 12.324 12.0623 12.8396C12.2762 12.9755 12.4893 13.1128 12.7025 13.2508C12.8404 13.3397 13.0642 13.3579 13.2049 13.2627C13.33 13.1779 13.3506 13.0301 13.2127 12.9411C11.5414 11.8624 9.84525 10.8138 8.04177 9.9599C7.15141 9.53821 6.23688 9.16625 5.30388 8.84613C4.41067 8.54002 3.48264 8.23881 2.52548 8.25983C2.04868 8.27034 1.58111 8.35649 1.15263 8.56944C0.754697 8.76768 0.423563 9.0962 0.226731 9.49127C0.036293 9.87444 -0.0305022 10.3206 0.0107119 10.743C0.0561895 11.2159 0.223888 11.6453 0.48041 12.0438C1.00696 12.8606 1.86677 13.4217 2.72729 13.8497C3.61837 14.2924 4.58832 14.5789 5.57106 14.7414C7.60761 15.0776 9.6875 14.9214 11.7283 14.7057C11.972 14.6797 12.2151 14.6531 12.4588 14.6258C12.5881 14.6111 12.7722 14.5039 12.7139 14.3519C12.6549 14.1929 12.4254 14.1656 12.2826 14.1817Z" fill="#1E2125"/>
<path d="M13.139 12.8157C12.6942 12.5509 12.2593 12.2707 11.8365 11.973C11.6333 11.8294 11.4322 11.6823 11.2347 11.531C11.2119 11.5135 11.1885 11.4953 11.1657 11.4777C11.1345 11.4539 11.175 11.4847 11.1785 11.4875C11.1672 11.4784 11.1558 11.47 11.1444 11.4609C11.0947 11.4224 11.0456 11.3832 10.9966 11.3439C10.8986 11.2655 10.8005 11.1863 10.7039 11.1058C9.92931 10.4627 9.19243 9.76647 8.50956 9.02956C8.34186 8.84814 8.16634 8.66601 8.0157 8.46988C8.05478 8.52031 8.01996 8.47478 8.00149 8.45237C7.98301 8.42995 7.96454 8.40684 7.94606 8.38442C7.90272 8.33118 7.86008 8.27795 7.81816 8.22401C7.74283 8.12805 7.66893 8.03138 7.59716 7.93331C7.45078 7.73438 7.3108 7.52984 7.17934 7.32109C7.11539 7.21882 7.05285 7.11585 6.99316 7.01148C6.9619 6.95754 6.93134 6.90291 6.9015 6.84827C6.888 6.82305 6.8745 6.79783 6.86028 6.77262C6.85673 6.76631 6.83399 6.72358 6.85531 6.76351C6.87734 6.80484 6.8482 6.7488 6.84394 6.74109C6.73309 6.52465 6.63219 6.30329 6.54407 6.07774C6.50073 5.96776 6.46022 5.85569 6.42327 5.74361C6.40551 5.68967 6.38845 5.63574 6.37211 5.5811C6.36287 5.54958 6.35292 5.51736 6.3444 5.48584C6.34084 5.47183 6.33658 5.45852 6.33303 5.44451C6.31882 5.39547 6.34582 5.49704 6.33374 5.44731C6.27547 5.21125 6.22573 4.97519 6.19446 4.73422C6.18096 4.62845 6.16959 4.52268 6.16391 4.4162C6.1632 4.40429 6.16036 4.33214 6.16178 4.37768C6.1632 4.42321 6.16178 4.35036 6.16107 4.33915C6.16036 4.28942 6.16107 4.23898 6.16249 4.18925C6.16817 3.99101 6.18949 3.79348 6.22644 3.59874C6.2307 3.57563 6.23639 3.55321 6.23994 3.53009C6.24705 3.48737 6.22715 3.58053 6.23781 3.5385C6.24065 3.52729 6.24278 3.51609 6.24563 3.50418C6.257 3.45514 6.26979 3.40611 6.284 3.35778C6.31029 3.26531 6.34013 3.17355 6.37495 3.08389C6.40977 2.99143 6.44956 2.90106 6.49362 2.8121C6.50357 2.79179 6.51423 2.77218 6.52418 2.75186C6.54976 2.70143 6.50286 2.78759 6.53128 2.73855C6.55544 2.69652 6.58031 2.6552 6.6066 2.61457C6.70751 2.45836 6.82547 2.31546 6.96048 2.18727C6.92424 2.2216 6.94698 2.19988 6.969 2.18097C6.98535 2.16696 7.00169 2.15365 7.01875 2.13964C7.05783 2.10812 7.09833 2.0787 7.13955 2.05068C7.21416 2.00025 7.29232 1.95682 7.37333 1.91759C7.38328 1.91269 7.39323 1.90848 7.40317 1.90428C7.40104 1.90498 7.35343 1.92389 7.38399 1.91269C7.40459 1.90568 7.42449 1.89658 7.4451 1.88887C7.49058 1.87206 7.53605 1.85735 7.58295 1.84474C7.6334 1.83073 7.68457 1.81882 7.73644 1.80972C7.76557 1.80411 7.794 1.79991 7.82313 1.79571C7.83734 1.79361 7.85226 1.7922 7.86648 1.7901C7.83521 1.79361 7.86079 1.7901 7.87713 1.7894C7.99651 1.7824 8.1166 1.7859 8.23527 1.80061C8.26369 1.80411 8.29212 1.80832 8.32054 1.81322C8.33475 1.81532 8.34897 1.81812 8.36318 1.82092C8.31201 1.81112 8.36104 1.82092 8.36957 1.82303C8.43068 1.83774 8.49108 1.85315 8.55148 1.87136C8.66802 1.90708 8.78242 1.95191 8.89328 2.00235C8.84424 1.97993 8.9082 2.01005 8.92383 2.01846C8.95012 2.03177 8.97712 2.04578 9.00342 2.05979C9.06524 2.09271 9.12564 2.12773 9.18533 2.16416C9.29262 2.2293 9.39708 2.30005 9.49799 2.3743C9.52215 2.39181 9.5463 2.41073 9.57046 2.42824C9.60244 2.45136 9.56407 2.42264 9.55981 2.41983C9.57189 2.42894 9.58326 2.43875 9.59534 2.44785C9.65005 2.49128 9.70406 2.53611 9.75664 2.58165C9.93997 2.73925 10.1148 2.90737 10.2832 3.08039C10.4438 3.245 10.5973 3.41592 10.7458 3.59104C10.7913 3.64497 10.711 3.54831 10.755 3.60294C10.7749 3.62746 10.7955 3.65198 10.8154 3.6772C10.8524 3.72343 10.8886 3.76966 10.9248 3.81589C10.9938 3.90485 11.0613 3.99591 11.1274 4.08698C11.3945 4.45823 11.634 4.8477 11.8486 5.25117C11.855 5.26308 11.8927 5.33663 11.8706 5.2925C11.8479 5.24837 11.8863 5.32262 11.892 5.33453C11.9204 5.39057 11.9481 5.44591 11.9758 5.50265C12.0248 5.60282 12.0724 5.70438 12.1193 5.80595C12.2139 6.014 12.3027 6.22554 12.3858 6.43849C12.5535 6.86858 12.6992 7.30778 12.8264 7.75189C12.8413 7.80442 12.8562 7.85766 12.8711 7.9102C12.8747 7.9221 12.8953 7.99916 12.8846 7.95993C12.874 7.9193 12.8861 7.96413 12.8875 7.97044C12.8925 7.98795 12.8967 8.00616 12.9017 8.02367C12.9323 8.13925 12.9614 8.25483 12.9898 8.37111C13.0452 8.60017 13.0971 8.82993 13.1447 9.06038C13.338 9.99412 13.4737 10.9384 13.5839 11.8847C13.6116 12.1201 13.6372 12.3561 13.662 12.5915C13.6791 12.7526 13.8397 12.9375 14.0131 12.9375C14.195 12.9375 14.2809 12.7897 14.2639 12.6244C14.1601 11.6403 14.0379 10.6568 13.8603 9.68241C13.6841 8.71505 13.4538 7.75329 13.1334 6.82235C12.82 5.91383 12.4121 5.03122 11.892 4.21937C11.3626 3.3942 10.7067 2.60546 9.93215 1.99114C9.50225 1.65001 9.02118 1.3453 8.48113 1.2087C7.97377 1.08122 7.45718 1.11064 6.98322 1.33339C6.20654 1.69904 5.79654 2.53892 5.63239 3.33116C5.43911 4.2628 5.62315 5.24207 5.95357 6.12257C6.31597 7.08853 6.88729 7.97184 7.54387 8.76758C8.21964 9.58714 8.97854 10.3409 9.77156 11.0497C10.5511 11.7467 11.3832 12.3877 12.2636 12.9572C12.4846 13.1001 12.7084 13.2387 12.9344 13.3732C13.0673 13.4524 13.2705 13.437 13.3252 13.2703C13.3771 13.1029 13.2904 12.906 13.139 12.8157Z" fill="#1E2125"/>
<path d="M14.4211 12.7359C13.9407 10.8957 13.7844 8.97851 13.7744 7.08301C13.7695 6.14437 13.7837 5.19522 13.8832 4.26078C13.977 3.37887 14.1923 2.46335 14.8119 1.78808C15.089 1.48618 15.4372 1.24521 15.8266 1.10722C15.9957 1.04768 16.1911 1.01055 16.3851 1.00495C16.378 1.00495 16.464 1.00425 16.4299 1.00425C16.3958 1.00355 16.4818 1.00635 16.4747 1.00635C16.5273 1.00915 16.5798 1.01405 16.6324 1.02176C16.6587 1.02526 16.685 1.03016 16.7113 1.03507C16.7681 1.04487 16.7255 1.03717 16.7134 1.03437C16.7738 1.04838 16.8328 1.06589 16.8911 1.0855C16.9159 1.09391 16.9401 1.10441 16.965 1.11282C16.8989 1.0897 16.9422 1.10301 16.9579 1.11002C17.0055 1.13243 17.0531 1.15415 17.1 1.17867C17.122 1.19057 17.149 1.20178 17.1689 1.21719C17.1007 1.16536 17.1469 1.20458 17.1668 1.21719C17.2151 1.24801 17.262 1.28094 17.3075 1.31526C17.3231 1.32717 17.397 1.3727 17.3174 1.32156C17.3352 1.33277 17.3515 1.35028 17.3679 1.36499C17.4048 1.39722 17.4404 1.43014 17.4745 1.46446C17.4936 1.48337 17.5114 1.50229 17.5306 1.5219C17.5931 1.58564 17.4865 1.46866 17.5441 1.53661C17.5789 1.57724 17.613 1.61787 17.6457 1.6606C17.6784 1.70262 17.7097 1.74605 17.7395 1.79018C17.7495 1.80489 17.7594 1.8196 17.7694 1.83431C17.7331 1.77968 17.7807 1.85323 17.7843 1.85953C17.8433 1.9583 17.8966 2.06057 17.9434 2.16564C18.0365 2.37158 18.1012 2.57963 18.1545 2.80798C18.2604 3.26399 18.2973 3.73472 18.3115 4.19914C18.325 4.62433 18.3179 5.05022 18.2902 5.47471C18.2355 6.30338 18.0991 7.12714 17.8703 7.92639C17.4148 9.51578 16.572 10.9833 15.4052 12.1706C15.2539 12.324 15.0983 12.4732 14.9377 12.6175C14.8957 12.6553 14.9263 12.7485 14.9448 12.7849C14.9796 12.8571 15.0507 12.9292 15.1174 12.9733C15.2304 13.049 15.4003 13.1282 15.5175 13.0231C16.8207 11.8519 17.7793 10.3676 18.3371 8.72073C18.6114 7.91098 18.7862 7.0704 18.8722 6.22142C18.9631 5.322 18.9766 4.39107 18.8558 3.49375C18.7883 2.99361 18.6569 2.49277 18.4167 2.04446C18.1886 1.61927 17.8632 1.24241 17.4659 0.962217C17.0815 0.691832 16.6196 0.509007 16.1442 0.499901C15.6952 0.491495 15.256 0.619683 14.8744 0.852943C14.5085 1.0764 14.188 1.38601 13.9535 1.74255C13.6878 2.14673 13.5179 2.61325 13.4092 3.08047C13.2991 3.55609 13.2507 4.04293 13.2209 4.52906C13.1918 4.99908 13.1747 5.46911 13.1655 5.93983C13.1271 7.92289 13.2337 9.93256 13.6536 11.8764C13.702 12.0991 13.7545 12.3205 13.8121 12.5405C13.8526 12.696 14.0153 12.8297 14.1688 12.8732C14.2704 12.9019 14.463 12.8984 14.4211 12.7359Z" fill="#1E2125"/>
<path d="M15.9948 13.173C16.2812 12.3542 16.8817 11.6999 17.4501 11.0597C18.047 10.3886 18.6517 9.72245 19.3176 9.11583C20.5774 7.96774 22.1251 6.99688 23.876 6.86098C24.0636 6.84627 24.2505 6.84487 24.4459 6.86098C24.4473 6.86098 24.5397 6.87009 24.4857 6.86449C24.5091 6.86729 24.5326 6.87009 24.556 6.87359C24.6029 6.8799 24.6491 6.8883 24.6953 6.89671C24.7123 6.90021 24.7735 6.91562 24.7081 6.89881C24.7351 6.90581 24.7628 6.91212 24.7898 6.91982C24.8019 6.92333 24.8367 6.92893 24.8431 6.93524C24.7976 6.92053 24.7941 6.91912 24.8324 6.93243C24.8452 6.93664 24.8587 6.94154 24.8715 6.94644C24.8928 6.95415 24.9156 6.96185 24.9362 6.97166C24.8509 6.93173 24.9355 6.97306 24.9504 6.98007C24.9667 6.98777 24.9831 6.99618 24.9994 7.00458C24.9298 6.96886 25.0108 7.01229 25.02 7.01859C25.0357 7.0284 25.0513 7.03821 25.0669 7.04801C25.0193 7.01719 25.0939 7.06833 25.0968 7.06973C25.1117 7.08094 25.1259 7.09214 25.1408 7.10405C25.1465 7.10895 25.214 7.16779 25.1899 7.14468C25.3035 7.25185 25.3981 7.37934 25.4677 7.51803C25.7697 8.11975 25.6844 8.86156 25.3753 9.44365C25.003 10.1455 24.3208 10.6324 23.6457 11.0288C22.9025 11.4652 22.1286 11.861 21.3534 12.24C19.7958 13.0028 18.17 13.6367 16.4553 13.9533C16.2357 13.994 16.0147 14.029 15.793 14.0598C15.6388 14.0815 15.8001 14.2181 15.8563 14.2511C15.987 14.3281 16.1696 14.4024 16.326 14.3799C18.1309 14.1292 19.8555 13.5303 21.4969 12.7611C22.3177 12.3766 23.122 11.9577 23.9151 11.5206C24.6356 11.1234 25.3568 10.6695 25.845 9.99773C26.2628 9.42264 26.4448 8.65421 26.2366 7.96634C25.9758 7.10195 25.0747 6.65714 24.2199 6.55417C23.3331 6.447 22.42 6.63263 21.5943 6.94995C20.7615 7.27006 19.9983 7.74499 19.3062 8.29977C18.5778 8.88397 17.9262 9.55363 17.3002 10.2408C16.9882 10.5833 16.6784 10.928 16.3764 11.2789C16.0865 11.6158 15.808 11.9668 15.5898 12.3541C15.4868 12.5377 15.3987 12.7289 15.3297 12.9278C15.2928 13.0336 15.5543 13.1345 15.6218 13.1583C15.7007 13.1863 15.7845 13.2115 15.8691 13.2136C15.9053 13.2143 15.9799 13.2171 15.9948 13.173Z" fill="#1E2125"/>
<path d="M16.3098 14.5704C16.5556 14.5129 16.8022 14.4562 17.0488 14.3994C17.161 14.3742 17.2733 14.3483 17.3856 14.3238C17.4417 14.3112 17.4979 14.2986 17.554 14.2867C17.5874 14.279 17.6215 14.272 17.6556 14.2649C17.6641 14.2628 17.7537 14.2439 17.7096 14.253C18.1935 14.1494 18.6796 14.0548 19.1685 13.9764C20.132 13.8222 21.1091 13.7326 22.0861 13.7732C22.1323 13.7753 22.1785 13.7774 22.2247 13.7802C22.1487 13.776 22.241 13.7816 22.251 13.7823C22.2744 13.7837 22.2972 13.7858 22.3206 13.7872C22.4272 13.7949 22.5331 13.8047 22.6397 13.8166C22.8344 13.8377 23.0277 13.865 23.2202 13.8979C23.4128 13.9308 23.6047 13.97 23.7951 14.0156C23.8946 14.0394 23.9934 14.0653 24.0921 14.0926C24.1369 14.1052 24.1817 14.1178 24.2257 14.1312C24.2435 14.1368 24.2612 14.1417 24.279 14.1473C24.2925 14.1515 24.4069 14.1879 24.3287 14.162C24.7004 14.2825 25.0628 14.4282 25.411 14.604C25.4962 14.6474 25.5801 14.6922 25.6632 14.7385C25.703 14.7609 25.7421 14.7833 25.7812 14.8064C25.7968 14.8155 25.8125 14.8246 25.8281 14.8344C25.8615 14.8548 25.8594 14.8534 25.8203 14.8295C25.8359 14.8393 25.8508 14.8484 25.8665 14.8583C26.0263 14.9591 26.1813 15.067 26.3305 15.1826C26.4861 15.3031 26.636 15.4312 26.7774 15.5678C26.7902 15.5805 26.803 15.5931 26.8158 15.605C26.8819 15.6694 26.7611 15.5475 26.825 15.6141C26.8563 15.6463 26.8869 15.6785 26.9174 15.7114C26.9871 15.7864 27.0546 15.8634 27.1192 15.9426C27.1512 15.9818 27.1825 16.0225 27.2116 16.0638C27.2294 16.0883 27.2464 16.1135 27.2621 16.1394C27.2542 16.1268 27.2294 16.0771 27.2585 16.1373C27.2798 16.1815 27.299 16.2256 27.3182 16.2704C27.3509 16.3482 27.3061 16.2011 27.321 16.2823C27.3253 16.3068 27.3324 16.3307 27.336 16.3552C27.3388 16.3734 27.3502 16.4091 27.3452 16.4273C27.3608 16.365 27.3438 16.3951 27.3438 16.4252C27.3438 16.4652 27.3409 16.5044 27.336 16.5443C27.3338 16.5639 27.3324 16.5842 27.3267 16.6032C27.3495 16.5219 27.3253 16.6003 27.321 16.6144C27.3075 16.6613 27.2912 16.7068 27.2727 16.7517C27.2663 16.7671 27.2592 16.7818 27.2528 16.7965C27.2194 16.8721 27.2876 16.7397 27.245 16.8119C27.2237 16.8483 27.2017 16.8847 27.1782 16.9198C27.1242 16.9996 27.0624 17.0739 26.997 17.1453C27.0489 17.0879 26.9878 17.1544 26.98 17.1621C26.9672 17.1747 26.9537 17.1874 26.9402 17.2C26.9068 17.2315 26.8719 17.2616 26.8364 17.2903C26.7575 17.3555 26.6744 17.4157 26.5884 17.4717C26.5451 17.4998 26.5017 17.5264 26.457 17.5523C26.4427 17.5607 26.3866 17.5901 26.4456 17.5593C26.4207 17.5719 26.3966 17.5852 26.3717 17.5978C26.2793 17.6441 26.1841 17.684 26.0867 17.7204C25.8792 17.7989 25.6668 17.8647 25.4515 17.918C25.4003 17.9306 25.3484 17.9425 25.2973 17.9544C25.1957 17.9775 25.3563 17.9432 25.2546 17.9635C25.234 17.9677 25.2134 17.9719 25.1921 17.9761C25.0727 17.9992 24.9519 18.0188 24.8311 18.0356C24.6037 18.0672 24.3756 18.0875 24.1461 18.0987C23.9209 18.1099 23.6949 18.112 23.4696 18.1078C23.3567 18.1057 23.243 18.1015 23.13 18.0952C23.1172 18.0945 23.0483 18.0903 23.1016 18.0938C23.0696 18.0917 23.0369 18.0896 23.0049 18.0875C22.9403 18.0833 22.8756 18.0784 22.8109 18.0728C21.9625 18.0013 21.1162 17.8633 20.2905 17.6574C20.088 17.6069 19.8869 17.5516 19.6865 17.4921C19.6403 17.478 19.5941 17.464 19.5472 17.4493C19.5309 17.4444 19.469 17.4241 19.533 17.4451C19.5053 17.436 19.4776 17.4276 19.4506 17.4185C19.3497 17.3856 19.2495 17.3506 19.1493 17.3148C18.7663 17.1768 18.3904 17.0185 18.0265 16.8364C17.8439 16.7453 17.6649 16.648 17.4893 16.5443C17.4687 16.5324 17.4488 16.5205 17.4282 16.5079C17.4119 16.4981 17.3565 16.4638 17.4204 16.5037C17.3806 16.4785 17.3401 16.4539 17.301 16.428C17.2136 16.372 17.1276 16.3146 17.0431 16.255C16.7112 16.0232 16.4 15.7647 16.1122 15.4817C16.0667 15.4369 16.0191 15.3815 15.9644 15.3472C16.0305 15.3885 16.0284 15.4172 16.0028 15.3822C16.0596 15.4593 16.049 15.4621 16.0362 15.4319C16.0788 15.5328 16.0525 15.488 16.0454 15.4551C16.0397 15.4312 16.0355 15.4074 16.0312 15.3836C15.9992 15.2148 15.8287 15.0502 15.6446 15.0726C15.4634 15.095 15.3483 15.254 15.3817 15.4319C15.4031 15.5447 15.4293 15.6582 15.499 15.7528C15.5473 15.8186 15.612 15.8683 15.6724 15.923C15.8244 16.0596 15.9658 16.206 16.1215 16.3384C16.4597 16.627 16.8249 16.8784 17.2058 17.1082C17.9519 17.5586 18.7648 17.8864 19.5998 18.1393C20.4326 18.3922 21.291 18.5603 22.1551 18.6689C23.1172 18.7893 24.1035 18.8377 25.0656 18.6899C25.9851 18.5484 26.9281 18.2612 27.5676 17.5593C27.8625 17.2357 28.0387 16.8175 27.9961 16.3797C27.952 15.9244 27.6344 15.5517 27.3246 15.2351C26.1301 14.0135 24.4581 13.3641 22.769 13.1659C20.7467 12.9291 18.7272 13.3179 16.7638 13.7648C16.5173 13.8208 16.2714 13.8783 16.0248 13.9357C15.8486 13.9771 15.8003 14.2229 15.8699 14.363C15.9559 14.5367 16.1215 14.6145 16.3098 14.5704Z" fill="#1E2125"/>
<path d="M10.0174 8.50071C10.4011 9.14445 10.7841 9.78889 11.1679 10.4326C11.5175 11.0203 11.8507 11.6248 12.2536 12.1796C12.4753 12.485 12.7184 12.7722 12.9976 13.0279C13.0403 13.0664 13.134 13.1113 13.1703 13.0433C13.2072 12.9747 13.1255 12.8766 13.0808 12.8353C12.6167 12.4101 12.2721 11.8798 11.9495 11.3475C11.5828 10.7415 11.224 10.13 10.8616 9.52131C10.6491 9.16406 10.436 8.80682 10.2235 8.44957C10.1901 8.39423 10.1034 8.30737 10.0295 8.32979C9.95133 8.35361 9.99041 8.45518 10.0174 8.50071Z" fill="#1E2125"/>
<path d="M11.2446 9.26076C11.8216 10.4502 12.5102 11.5856 13.2997 12.6497C13.3458 12.712 13.4404 12.7737 13.5221 12.7533C13.6024 12.7337 13.5953 12.6504 13.5548 12.5957C12.7802 11.552 12.1059 10.4411 11.5395 9.27477C11.5033 9.19981 11.4187 9.13747 11.3327 9.13467C11.2581 9.13117 11.2105 9.19001 11.2446 9.26076Z" fill="#1E2125"/>
<path d="M14.5271 8.07334C14.5605 9.24384 14.5931 10.4171 14.4489 11.582C14.4063 11.9274 14.3494 12.2713 14.2805 12.6124C14.2563 12.7343 14.6081 12.7623 14.6358 12.6272C14.8674 11.4735 14.9264 10.3086 14.9072 9.13456C14.9015 8.78573 14.8916 8.43689 14.8816 8.08805C14.8781 7.95286 14.5235 7.94375 14.5271 8.07334Z" fill="#1E2125"/>
<path d="M15.5298 9.26372C15.3785 10.3467 15.1099 11.4107 14.7269 12.4362C14.7006 12.5062 14.7432 12.5931 14.783 12.6505C14.7972 12.6709 14.896 12.7843 14.9209 12.7171C15.3096 11.6762 15.5846 10.596 15.738 9.49698C15.7487 9.41923 15.699 9.32887 15.6485 9.27283C15.6187 9.24061 15.5405 9.18527 15.5298 9.26372Z" fill="#1E2125"/>
<path d="M16.2045 13.5519C17.227 13.1414 17.9717 12.3337 18.6773 11.5275C18.8919 11.2823 19.1058 11.0371 19.3297 10.8011C19.3851 10.7422 19.4171 10.6477 19.346 10.5853C19.2813 10.5286 19.1627 10.5454 19.1051 10.6057C18.3803 11.3713 17.7522 12.2588 16.871 12.8647C16.6436 13.0216 16.4006 13.1596 16.1434 13.2633C16.0645 13.2948 15.9856 13.3662 16.0063 13.4587C16.0247 13.5414 16.1285 13.5827 16.2045 13.5519Z" fill="#1E2125"/>
<path d="M16.2159 13.9273C17.4217 13.4538 18.5693 12.8444 19.6338 12.1124C19.6778 12.0816 19.4647 11.8028 19.4064 11.8434C18.3419 12.5754 17.1943 13.1848 15.9885 13.6583C15.9601 13.6688 16.1327 13.9602 16.2159 13.9273Z" fill="#1E2125"/>
<path d="M16.1381 14.5767C17.3326 14.9682 18.5576 15.2631 19.8011 15.4572C19.8722 15.4684 19.9504 15.4495 20.0193 15.4326C20.0484 15.4256 20.0989 15.42 20.1209 15.4004C20.1237 15.3976 20.1579 15.3808 20.1344 15.3773C18.8916 15.1826 17.6658 14.8884 16.4713 14.4968C16.4088 14.4765 16.3143 14.5066 16.2532 14.5213C16.2368 14.5248 16.1132 14.5683 16.1381 14.5767Z" fill="#1E2125"/>
<path d="M16.0189 15.2107C17.072 15.701 18.1421 16.1921 19.3011 16.3784C19.3864 16.3924 19.4901 16.3427 19.5185 16.2593C19.547 16.1746 19.4816 16.1052 19.3999 16.0919C18.27 15.9098 17.2262 15.4237 16.1994 14.9452C16.0303 14.8675 15.8164 15.1168 16.0189 15.2107Z" fill="#1E2125"/>
<path d="M14.9324 15.8867C15.3523 16.9409 15.8775 17.9545 16.4964 18.9093C16.6733 19.1817 16.8581 19.4493 17.0499 19.712C17.1608 19.8633 17.4763 19.754 17.3441 19.5747C16.6847 18.6725 16.1141 17.71 15.6444 16.6985C15.5101 16.4092 15.3843 16.1157 15.2656 15.8194C15.1981 15.6485 14.8542 15.6898 14.9324 15.8867Z" fill="#1E2125"/>
<path d="M15.4734 15.9581C16.2444 16.8652 16.9976 17.7864 17.7323 18.7215C17.9398 18.9856 18.1459 19.2511 18.3498 19.5172C18.3996 19.5824 18.509 19.6209 18.5836 19.5733C18.6611 19.5236 18.644 19.4241 18.5957 19.361C17.8716 18.4175 17.1283 17.488 16.3673 16.5731C16.1527 16.3147 15.936 16.0576 15.7185 15.8019C15.6652 15.7389 15.5615 15.6961 15.4848 15.7459C15.4101 15.7942 15.4215 15.8972 15.4734 15.9581Z" fill="#1E2125"/>
<path d="M13.3103 15.8347C12.5691 17.1663 12.0113 18.5953 11.6596 20.074C11.5601 20.4915 11.4776 20.9125 11.4109 21.3356C11.3988 21.4126 11.4542 21.4876 11.5103 21.5359C11.5331 21.5555 11.6581 21.6361 11.6702 21.5604C11.9068 20.0593 12.3495 18.5918 12.9855 17.2091C13.1653 16.8189 13.36 16.4357 13.5689 16.0596C13.6222 15.965 13.3742 15.7198 13.3103 15.8347Z" fill="#1E2125"/>
<path d="M13.9809 16.0744C13.3386 17.509 12.9101 19.0339 12.7147 20.5904C12.6592 21.0303 12.623 21.4723 12.6045 21.915C12.6024 21.9619 12.6941 22.0201 12.7268 22.0453C12.7367 22.053 12.8838 22.1433 12.8845 22.1307C12.9492 20.5645 13.2469 19.0087 13.7671 17.5272C13.9141 17.1083 14.079 16.6957 14.2609 16.2901C14.2872 16.2299 13.9873 16.0597 13.9809 16.0744Z" fill="#1E2125"/>
<path d="M12.5154 14.9271C11.2356 15.5841 10.0049 16.3329 8.83523 17.1665C8.50765 17.4005 8.18504 17.6407 7.8667 17.8873C7.83046 17.9153 8.03013 18.2004 8.04079 18.1927C9.17489 17.3129 10.3729 16.5144 11.6243 15.8069C11.9753 15.6086 12.3299 15.4174 12.6887 15.2332C12.7122 15.2206 12.5452 14.9117 12.5154 14.9271Z" fill="#1E2125"/>
<path d="M12.5346 15.2708C11.6158 16.0533 10.7289 16.8693 9.88761 17.7323C9.63962 17.9866 9.39589 18.2444 9.15429 18.5049C9.10313 18.5603 9.1749 18.5911 9.22677 18.5995C9.29214 18.61 9.41649 18.6065 9.46695 18.5526C10.2848 17.6686 11.1425 16.8217 12.0421 16.0189C12.3072 15.7822 12.5758 15.5489 12.8465 15.3185C12.9062 15.2673 12.8181 15.2309 12.774 15.2239C12.7015 15.212 12.5942 15.2197 12.5346 15.2708Z" fill="#1E2125"/>
<path d="M12.6726 13.3697C11.427 12.7897 10.1444 12.2875 8.83403 11.8672C8.46097 11.7474 8.08578 11.6346 7.70916 11.5275C7.62816 11.5043 7.62176 11.6087 7.63811 11.6585C7.66511 11.7383 7.73048 11.8056 7.81291 11.8287C9.12039 12.1992 10.4044 12.6517 11.6544 13.1813C12.0096 13.3319 12.3614 13.4888 12.711 13.6513C12.7799 13.6835 12.8304 13.638 12.824 13.568C12.8147 13.4867 12.7458 13.4041 12.6726 13.3697Z" fill="#1E2125"/>
<path d="M12.5996 13.6667C11.1393 13.3802 9.67481 13.114 8.20744 12.8675C7.79104 12.7974 7.37534 12.7295 6.95823 12.6629C6.87154 12.6489 6.77205 12.6944 6.73439 12.775C6.69957 12.8485 6.73866 12.9326 6.82251 12.9459C8.292 13.1813 9.75866 13.4362 11.221 13.7108C11.6353 13.7886 12.0496 13.8684 12.4639 13.9497C12.5499 13.9665 12.6508 13.9161 12.6877 13.8376C12.7232 13.762 12.6827 13.6828 12.5996 13.6667Z" fill="#1E2125"/>
</g>
<defs>
<clipPath id="clip0_162_235">
<rect width="28" height="27" fill="white" transform="translate(0 0.5)"/>
</clipPath>
</defs>
</svg>
