<svg width="27" height="28" viewBox="0 0 27 28" fill="none" xmlns="http://www.w3.org/2000/svg">
<path d="M10.3374 5.02811C6.96705 6.70655 5.80423 8.02544 4.39357 11.6153C2.98434 15.2052 3.52901 19.9788 6.21057 22.6755C8.28982 24.7653 11.3057 25.319 13.9209 24.5999C16.5362 23.8822 18.7841 22.0355 20.6284 19.8494C21.8417 18.4125 22.9512 16.6967 23.091 14.6745C23.2913 11.7894 21.4598 9.10845 19.3806 7.33076C16.7696 5.10146 13.2898 3.75669 10.3374 5.02811Z" fill="#F5BFBB"/>
<path d="M9.02655 11.6153C10.4358 8.02543 11.5986 6.70654 14.9704 5.0281C15.0482 4.99502 15.126 4.96481 15.2038 4.93461C13.5698 4.41396 11.8796 4.36218 10.3335 5.0281C6.96171 6.70654 5.79888 8.02543 4.38966 11.6153C2.98044 15.2052 3.52511 19.9788 6.20666 22.6755C8.28591 24.7653 11.3018 25.319 13.917 24.5999C13.9545 24.5898 13.992 24.5769 14.0294 24.5654C12.8623 24.2188 11.7614 23.5974 10.845 22.6741C8.16199 19.9788 7.61733 15.2038 9.02655 11.6153Z" fill="#E1A29E"/>
<path d="M3.81786 18.9562C3.13631 19.5488 2.45619 20.1514 1.87838 20.849C1.33371 21.5063 0.861089 22.2355 0.510945 23.015C0.193942 23.7226 -0.0596601 24.5338 0.00950414 25.3176C0.0945185 26.2856 0.665124 27.2147 1.51527 27.7008C3.29769 28.7191 5.10461 26.904 6.28904 25.7736C7.91729 24.2174 9.54553 22.6597 11.1694 21.0992C14.3697 18.0214 17.57 14.9377 20.6882 11.7779C22.0412 10.4072 23.3553 8.99486 24.4864 7.43291C25.0354 6.67495 25.5383 5.88391 25.9677 5.05116C26.1867 4.62687 26.3856 4.19252 26.5614 3.74954C26.7242 3.33963 26.8899 2.91679 26.962 2.47955C27.0455 1.96897 26.9908 1.46702 26.7256 1.01109C26.4288 0.501951 25.9461 0.0445847 25.3323 0.00287525C24.8798 -0.0273282 24.4216 0.185534 24.0354 0.401273C23.6118 0.637147 23.1983 0.893157 22.7934 1.15923C21.1896 2.21635 19.7285 3.48921 18.4634 4.93322C18.1565 5.28272 17.8625 5.64228 17.5801 6.01192C17.4086 6.23485 17.6176 6.5829 17.7631 6.77132C17.8683 6.90651 17.9879 7.04171 18.1377 7.12657C18.2026 7.16396 18.3741 7.25026 18.4375 7.16828C19.5585 5.70844 20.864 4.39531 22.3193 3.26772C23.0383 2.71111 23.7934 2.19909 24.5787 1.73885C24.9331 1.5303 25.2977 1.3045 25.7083 1.23259C25.8121 1.21389 25.9245 1.20094 26.0282 1.21389C26.0412 1.21533 26.2199 1.24984 26.1579 1.23834C26.1738 1.24697 26.1882 1.2556 26.204 1.26423C26.155 1.22683 26.1565 1.22683 26.2055 1.2671C26.1349 1.20382 26.0729 1.13622 26.0254 1.05424C26.0167 1.03986 25.9475 0.919045 26.0066 1.02116C25.9403 0.906101 26.0109 1.04849 26.0181 1.09883C26.0037 1.00103 26.0196 1.1578 26.0196 1.16355C26.021 1.19663 26.021 1.22971 26.0196 1.26135C26.0181 1.34477 26.0109 1.4325 25.998 1.51161C25.9663 1.70721 25.9072 1.89706 25.8438 2.08403C25.6997 2.50832 25.534 2.92685 25.3496 3.33532C24.9807 4.15081 24.5383 4.93035 24.0441 5.67536C23.047 7.17978 21.8438 8.5375 20.596 9.83768C19.1911 11.3018 17.7343 12.7199 16.2862 14.1424C14.7645 15.6382 13.2328 17.1253 11.6983 18.6082C10.1622 20.091 8.6219 21.5667 7.08011 23.0423C6.31354 23.7758 5.54985 24.5151 4.77752 25.2429C4.17233 25.8138 3.47348 26.3762 2.67665 26.6509C2.33083 26.7703 1.92017 26.8336 1.57002 26.7444C1.48789 26.7243 1.4072 26.6969 1.33083 26.6639C1.41008 26.6984 1.25734 26.6236 1.26022 26.625C1.24437 26.6164 1.09884 26.5186 1.20979 26.5991C1.17809 26.5761 1.14927 26.5517 1.11901 26.5272C1.00662 26.4424 1.13342 26.5402 1.13054 26.5416C1.12046 26.5315 1.11037 26.52 1.10028 26.51C1.04697 26.451 1.05994 26.4683 1.13775 26.5589C1.12766 26.5387 1.0095 26.3877 1.0902 26.5013C1.16656 26.6078 1.08875 26.4927 1.07723 26.4726C1.0023 26.346 1.13198 26.6164 1.08155 26.4783C1.07146 26.4496 1.02535 26.3144 1.07146 26.4668C1.06282 26.4395 1.05561 26.4136 1.04697 26.3863C1.03544 26.3446 1.0268 26.3043 1.01815 26.2611C1.01527 26.2482 0.992213 26.1073 1.00806 26.218C0.996536 26.1303 0.990772 26.0411 0.989331 25.9534C0.982127 25.5924 1.03832 25.2803 1.13775 24.9308C1.5729 23.3904 2.56426 22.0571 3.71412 20.9712C4.0268 20.6764 4.351 20.3931 4.67521 20.1097C4.88126 19.9314 4.61181 19.5042 4.49221 19.3503C4.39855 19.2309 4.02247 18.7793 3.81786 18.9562Z" fill="#1E2125"/>
</svg>
